<svg xmlns="http://www.w3.org/2000/svg" viewBox="0 0 24 23.156">
  <path d="M23.062 0H.937C.42 0 0 .405 0 .905s.42.904.938.904h.937v18.633c0 .5.42.905.938.905h.937v.904c0 .5.42.905.938.905s.937-.405.937-.905v-.904h12.75v.904c0 .5.42.905.938.905s.937-.405.937-.905v-.904h.938c.517 0 .937-.405.937-.905V1.81h.937c.518 0 .938-.405.938-.904S23.58 0 23.062 0Zm-12 1.809v17.729H3.75V1.809h7.312Zm9.188 17.729h-7.312V1.809h7.312v17.729Zm-12-5.427c.517 0 .937-.405.937-.905V8.141c0-.5-.42-.905-.938-.905s-.937.405-.937.905v5.065c0 .5.42.905.937.905Zm7.499 0c.518 0 .938-.405.938-.905V8.141c0-.5-.42-.905-.938-.905s-.937.405-.937.905v5.065c0 .5.42.905.937.905Z"></path>
</svg>