<svg xmlns="http://www.w3.org/2000/svg" viewBox="0 0 24 18.091">
  <path d="M22.125 5.583v-2.87C22.125 1.218 20.863 0 19.312 0h-5.437A2.86 2.86 0 0 0 12 .693 2.86 2.86 0 0 0 10.125 0H4.688C3.137 0 1.875 1.217 1.875 2.714v2.869C.784 5.956 0 6.962 0 8.14v3.618c0 1.496 1.262 2.713 2.813 2.713h.358l-1.197 2.31a.89.89 0 0 0 .42 1.213.954.954 0 0 0 1.257-.405l1.616-3.118h13.466l1.616 3.118a.954.954 0 0 0 1.258.405.89.89 0 0 0 .419-1.214l-1.197-2.309h.359c1.55 0 2.812-1.217 2.812-2.713V8.14c0-1.18-.784-2.185-1.875-2.558Zm-9.188-2.87c0-.498.421-.904.938-.904h5.437c.517 0 .938.406.938.905v2.869c-1.091.373-1.875 1.379-1.875 2.558v.904h-5.438V2.714Zm-9.187 0c0-.498.42-.904.938-.904h5.437c.517 0 .937.406.937.905v6.331H5.625v-.904c0-1.18-.784-2.185-1.875-2.558v-2.87Zm18.375 9.046c0 .499-.42.904-.937.904H2.813c-.517 0-.938-.405-.938-.904V8.14c0-.499.42-.905.938-.905.516 0 .937.406.937.905V9.95c0 .5.42.904.938.904h14.625c.517 0 .937-.405.937-.904V8.14c0-.498.42-.904.938-.904.516 0 .937.406.937.905v3.618Z"></path>
</svg>