<svg xmlns="http://www.w3.org/2000/svg" viewBox="0 0 24 18.735">
  <path d="m22.143 9.562-.024-.008V4.666A4.671 4.671 0 0 0 17.454 0H6.547A4.671 4.671 0 0 0 1.88 4.666v4.888l-.023.008A2.792 2.792 0 0 0 0 12.188v3.761c0 .5.406.905.905.905h2.856v.975a.906.906 0 0 0 1.81 0v-.975H18.43v.975a.906.906 0 0 0 1.81 0v-.975h2.856c.499 0 .905-.406.905-.905v-3.76a2.792 2.792 0 0 0-1.857-2.627ZM3.69 9.367v-4.7A2.859 2.859 0 0 1 6.547 1.81h10.906a2.859 2.859 0 0 1 2.856 2.856v4.736h-1.95v-.975a2.789 2.789 0 0 0-2.786-2.786H13.88a2.78 2.78 0 0 0-1.857.712L12 6.374l-.023-.021a2.78 2.78 0 0 0-1.858-.712H8.427a2.789 2.789 0 0 0-2.786 2.786v.975h-1.95v-.035Zm12.857-.94v.975h-3.643v-.975c0-.538.438-.975.975-.975h1.693c.538 0 .975.437.975.975Zm-5.453 0v.975H7.452v-.975c0-.538.437-.975.975-.975h1.692c.538 0 .976.437.976.975ZM22.19 15.01v.035H1.81v-2.856c0-.538.438-.975.976-.975h18.428c.538 0 .976.437.976.975v2.82Zm-3.868 1.88h.072-.072Z"></path>
</svg>