<svg xmlns="http://www.w3.org/2000/svg" viewBox="0 0 16.875 24">
  <path d="M15.938 9.375c.517 0 .937-.42.937-.938v-3.75A4.693 4.693 0 0 0 12.187 0h-7.5A4.693 4.693 0 0 0 0 4.688v3.75c0 .517.42.937.938.937h.937v2.036A2.817 2.817 0 0 0 0 14.063v1.874c0 .518.42.938.938.938h.937v6.188a.937.937 0 1 0 1.875 0v-2.438h9.375v2.438a.937.937 0 1 0 1.875 0v-6.188h.938c.517 0 .937-.42.937-.938v-1.874A2.817 2.817 0 0 0 15 11.41V9.375h.938ZM1.874 4.687a2.816 2.816 0 0 1 2.813-2.812h7.5A2.816 2.816 0 0 1 15 4.688V7.5H1.875V4.687Zm11.25 14.063H3.75v-1.875h9.375v1.875ZM15 15H1.875v-.938c0-.516.42-.937.938-.937h11.25c.516 0 .937.42.937.938V15Zm-1.875-3.75H3.75V9.375h9.375v1.875Z"></path>
</svg>