<svg xmlns="http://www.w3.org/2000/svg" viewBox="0 0 24 23.156">
  <path d="M20.532 16.448A11.59 11.59 0 0 0 24 8.14c0-.5-.42-.905-.938-.905h-2.677C19.917 3.172 16.335 0 12 0S4.083 3.172 3.615 7.236H.937c-.517 0-.937.405-.937.905a11.59 11.59 0 0 0 3.468 8.307c2.036 2.01 4.704 3.204 7.595 3.417v1.482H6.375c-.518 0-.938.405-.938.904 0 .5.42.905.938.905h11.25c.518 0 .938-.405.938-.905s-.42-.904-.938-.904h-4.688v-1.482c2.89-.213 5.56-1.407 7.595-3.417ZM12 1.809c3.619 0 6.563 2.84 6.563 6.332S15.619 14.472 12 14.472s-6.563-2.84-6.563-6.331S8.381 1.809 12 1.809Zm0 16.281c-5.367 0-9.634-3.905-10.086-9.045h1.7c.469 4.065 4.05 7.236 8.386 7.236s7.917-3.171 8.385-7.236h1.7c-.45 5.14-4.718 9.045-10.085 9.045ZM8.994 8.328a.882.882 0 0 1 0-1.28l2.812-2.713a.962.962 0 0 1 1.326 0 .882.882 0 0 1 0 1.28L10.32 8.327a.962.962 0 0 1-1.326 0Zm1.875 2.339 2.812-2.714a.962.962 0 0 1 1.326 0 .882.882 0 0 1 0 1.28l-2.812 2.713c-.366.353-.96.353-1.326 0s-.366-.926 0-1.279Z"></path>
</svg>