<svg xmlns="http://www.w3.org/2000/svg" viewBox="0 0 24 18.025">
  <path d="M23.235 5.033a2.605 2.605 0 0 0-.942-.603V.903a.905.905 0 0 0-1.807 0v3.365h-.754V.903a.904.904 0 0 0-1.806 0v3.365h-.755V.903a.904.904 0 0 0-1.806 0v3.365H2.61C1.17 4.268 0 5.44 0 6.878v10.244a.904.904 0 0 0 1.806 0v-.804h6.73v.804c0 .498.405.903.903.903a.904.904 0 0 0 .903-.903V6.074H21.39a.804.804 0 0 1 .804.805v10.243a.904.904 0 0 0 1.806 0V6.879c0-.7-.271-1.355-.765-1.846ZM1.806 6.88c0-.444.361-.805.804-.805h5.926V9.39h-6.73V6.879Zm6.73 4.317v3.316h-6.73v-3.316h6.73Z"></path>
  <path d="M6.025 6.83H4.318a.904.904 0 0 0 0 1.806h1.707a.904.904 0 0 0 0-1.807ZM4.318 13.757h1.707a.904.904 0 0 0 0-1.806H4.318a.904.904 0 0 0 0 1.806Z"></path>
</svg>