<svg xmlns="http://www.w3.org/2000/svg" viewBox="0 0 24 23.156">
  <path d="M20.386 7.24C19.919 3.172 16.335 0 12 0S4.08 3.173 3.614 7.24C1.61 7.308 0 8.902 0 10.854c0 1.31.731 2.498 1.875 3.13v4.65c0 1.495 1.262 2.713 2.812 2.713h.75v.904c0 .5.42.905.938.905s.938-.405.938-.905v-.904h9.375v.904c0 .5.42.905.937.905.518 0 .938-.405.938-.905v-.904h.75c1.55 0 2.812-1.218 2.812-2.714v-4.65c1.144-.63 1.875-1.818 1.875-3.129 0-1.95-1.61-3.545-3.615-3.614ZM12 1.808c3.442 0 6.274 2.57 6.542 5.826-1.211.6-2.042 1.818-2.042 3.22v3.617h-9v-3.618c0-1.401-.83-2.618-2.042-3.219C5.726 4.38 8.558 1.81 12 1.81Zm8.882 10.74a.907.907 0 0 0-.632.856v5.228c0 .499-.42.905-.938.905H4.688c-.516 0-.937-.406-.937-.905v-5.228a.907.907 0 0 0-.632-.855 1.795 1.795 0 0 1-1.243-1.696c0-.997.841-1.809 1.875-1.809s1.875.812 1.875 1.81v4.522c0 .5.42.904.938.904h10.874c.518 0 .938-.405.938-.904v-4.523c0-.997.841-1.809 1.875-1.809s1.875.812 1.875 1.81c0 .766-.5 1.447-1.243 1.695Zm-9.82-7.122c0-.5.42-.904.937-.904.518 0 .938.405.938.904s-.42.905-.938.905-.937-.405-.937-.905ZM8.25 8.141c0-.5.42-.905.938-.905.517 0 .937.405.937.905s-.42.904-.937.904c-.518 0-.938-.405-.938-.904Zm5.625 0c0-.5.42-.905.937-.905.518 0 .938.405.938.905s-.42.904-.938.904c-.517 0-.937-.405-.937-.904Zm-2.813 2.713c0-.5.42-.904.937-.904.518 0 .938.405.938.904s-.42.905-.938.905-.937-.405-.937-.905Z"></path>
</svg>