<svg xmlns="http://www.w3.org/2000/svg" viewBox="0 0 920 700"><clipPath id="clipgsbp-b25201b" clipPathUnits="objectBoundingBox"><path d="M480,30v640c0,16.56854-13.43146,30-30,30H30c-16.56854,0-30-13.43146-30-30V30C0,13.43146,13.43146,0,30,0h420c16.56854,0,30,13.43146,30,30ZM670,0h-120c-16.56854,0-30,13.43146-30,30v640c0,16.56854,13.43146,30,30,30h120c16.56854,0,30-13.43146,30-30V30c0-16.56854-13.43146-30-30-30ZM890,0h-120c-16.56854,0-30,13.43146-30,30v640c0,16.56854,13.43146,30,30,30h120c16.56854,0,30-13.43146,30-30V30c0-16.56854-13.43146-30-30-30Z" fill="#fff" stroke-width="0"></path></clipPath></svg>