<svg xmlns="http://www.w3.org/2000/svg" viewBox="0 0 25 25" class="default-logo" aria-label="Logo" role="img">
  <path fill="rgb(58, 110, 95)" d="M25 3.75v15c0 2.125-1.625 3.75-3.75 3.75H20v1.25c0 .75-.5 1.25-1.25 1.25s-1.25-.5-1.25-1.25V22.5h-10v1.25C7.5 24.5 7 25 6.25 25S5 24.5 5 23.75V22.5H3.75C1.625 22.5 0 20.875 0 18.75v-15C0 1.625 1.625 0 3.75 0h17.5C23.375 0 25 1.625 25 3.75Zm-2.5 8.75h-20v6.25C2.5 19.5 3 20 3.75 20h17.5c.75 0 1.25-.5 1.25-1.25V12.5Zm0-8.75c0-.75-.5-1.25-1.25-1.25H3.75C3 2.5 2.5 3 2.5 3.75V10h20V3.75ZM14.375 5h-3.75c-.75 0-1.25.5-1.25 1.25s.5 1.25 1.25 1.25h3.75c.75 0 1.25-.5 1.25-1.25S15.125 5 14.375 5Zm-3.75 12.5h3.75c.75 0 1.25-.5 1.25-1.25s-.5-1.25-1.25-1.25h-3.75c-.75 0-1.25.5-1.25 1.25s.5 1.25 1.25 1.25Z"></path>
</svg>
